<?xml version="1.0" encoding="UTF-8" standalone="no" ?>
<!DOCTYPE svg PUBLIC "-//W3C//DTD SVG 1.1//EN" "http://www.w3.org/Graphics/SVG/1.1/DTD/svg11.dtd">
<svg xmlns="http://www.w3.org/2000/svg" xmlns:xlink="http://www.w3.org/1999/xlink" version="1.1" width="1280" height="1024" viewBox="0 0 1280 1024" xml:space="preserve">
<desc>Created with Fabric.js 3.1.0</desc>
<defs>
</defs>
<g transform="matrix(1.9692780337941629 0 0 1.9692780337941629 640.0153846153846 512.012312418764)" id="background-logo"  >
<rect style="stroke: none; stroke-width: 1; stroke-dasharray: none; stroke-linecap: butt; stroke-dashoffset: 0; stroke-linejoin: miter; stroke-miterlimit: 4; fill: rgb(255,255,255); fill-rule: nonzero; opacity: 1;"  paint-order="stroke"  x="-325" y="-260" rx="0" ry="0" width="650" height="520" />
</g>
<g transform="matrix(1.9692780337941629 0 0 1.9692780337941633 812.1776105477934 511.6879329410375)" id="text-logo-path"  >
<path style="stroke: none; stroke-width: 1; stroke-dasharray: none; stroke-linecap: butt; stroke-dashoffset: 0; stroke-linejoin: miter; stroke-miterlimit: 4; fill: rgb(194,33,43); fill-rule: nonzero; opacity: 1;"  paint-order="stroke"  transform=" translate(-170.58499999999998, 16.51)" d="M 6.5 0.21 L 6.92 -2.03 Q 9.52 -2.24 10.5 -2.68 Q 11.49 -3.12 11.8 -4.29 Q 12.12 -5.46 12.12 -8.42 L 12.12 -8.42 L 12.12 -31.1 Q 7.7 -30.94 6.11 -30.6 Q 4.52 -30.26 3.95 -29.09 Q 3.38 -27.92 2.91 -24.54 L 2.91 -24.54 L 0.47 -24.34 Q 1.09 -29.28 1.25 -33.33 L 1.25 -33.33 L 1.72 -33.75 L 6.03 -33.18 L 22.15 -33.18 L 26.57 -33.75 L 27.04 -33.33 Q 27.2 -29.07 27.82 -24.54 L 27.82 -24.54 L 25.38 -24.34 Q 24.8 -27.77 24.23 -28.96 Q 23.66 -30.16 22.2 -30.52 Q 20.75 -30.89 16.59 -31.1 L 16.59 -31.1 Q 16.28 -27.98 16.02 -20.07 Q 15.76 -12.17 15.76 -5.82 L 15.76 -5.82 Q 15.76 -3.9 16.43 -3.09 Q 17.11 -2.29 18.72 -2.29 L 18.72 -2.29 Q 20.28 -2.29 21.58 -2.44 L 21.58 -2.44 L 21.74 -2.24 L 21.27 0.16 L 19.55 0.1 L 13.62 0 Q 10.76 0 6.5 0.21 L 6.5 0.21 Z M 50.8 0.62 Q 49.66 0.62 48.46 -0.39 Q 47.27 -1.4 46.28 -3.17 L 46.28 -3.17 L 41.91 -10.82 L 38.53 -10.82 L 38.43 -5.25 Q 38.43 -3.74 38.64 -3.09 Q 38.84 -2.44 39.44 -2.24 Q 40.04 -2.03 41.5 -1.98 L 41.5 -1.98 L 41.6 -1.82 L 41.18 0.16 Q 40.56 0.1 38.92 0.08 Q 37.28 0.05 35.62 0.05 L 35.62 0.05 Q 34.01 0.05 32.81 0.1 Q 31.62 0.16 31.2 0.21 L 31.2 0.21 L 31.56 -1.92 Q 33.49 -2.18 34.11 -2.81 Q 34.74 -3.43 34.74 -5.15 L 34.74 -5.15 L 34.79 -21.74 Q 34.79 -22.98 34.48 -23.43 Q 34.16 -23.87 33.28 -23.87 L 33.28 -23.87 L 31.82 -23.82 L 31.67 -24.02 L 31.98 -26 Q 32.5 -26 33.96 -25.95 Q 35.41 -25.9 36.87 -25.9 L 36.87 -25.9 Q 38.38 -25.9 40.09 -25.97 Q 41.81 -26.05 42.43 -26.05 L 42.43 -26.05 Q 46.64 -26.05 49.04 -24.31 Q 51.43 -22.57 51.43 -19.5 L 51.43 -19.5 Q 51.43 -17.11 49.82 -15.08 Q 48.2 -13.05 45.29 -11.75 L 45.29 -11.75 L 49.71 -5.1 Q 50.96 -3.22 52.1 -2.44 Q 53.25 -1.66 54.86 -1.66 L 54.86 -1.66 L 55.07 -1.4 L 54.81 0.21 L 50.8 0.62 Z M 42.85 -13.1 Q 43.84 -13.52 44.59 -13.91 Q 45.34 -14.3 46.28 -15.55 Q 47.22 -16.8 47.22 -18.77 L 47.22 -18.77 Q 47.22 -23.82 39.78 -23.82 L 39.78 -23.82 Q 39.36 -23.82 39.21 -23.63 Q 39.05 -23.45 39.05 -22.88 L 39.05 -22.88 Q 38.64 -16.54 38.64 -13.52 L 38.64 -13.52 L 42.85 -13.1 Z M 58.66 0.47 L 58.92 -1.66 Q 60.89 -2.03 61.57 -2.73 Q 62.24 -3.43 62.24 -5.15 L 62.24 -5.15 L 62.3 -21.68 Q 62.3 -22.98 61.98 -23.43 Q 61.67 -23.87 60.74 -23.87 L 60.74 -23.87 L 59.02 -23.82 L 58.92 -24.02 L 59.18 -26 Q 59.49 -26 60.87 -25.95 Q 62.24 -25.9 64.48 -25.9 L 64.48 -25.9 Q 65.68 -25.9 67.42 -26.05 Q 69.16 -26.21 69.68 -26.26 L 69.68 -26.26 L 69.47 -24.13 Q 67.76 -23.92 67.18 -23.48 Q 66.61 -23.04 66.51 -21.84 L 66.51 -21.84 Q 66.3 -17.68 66.12 -12.64 Q 65.94 -7.59 65.94 -4.84 L 65.94 -4.84 Q 65.94 -3.17 66.3 -2.6 Q 66.66 -2.03 67.76 -2.03 L 67.76 -2.03 Q 68.48 -2.03 69.08 -2.08 Q 69.68 -2.13 69.89 -2.18 L 69.89 -2.18 L 69.99 -1.98 L 69.63 0.1 Q 69 0.1 67.29 0.05 Q 65.57 0 63.86 0 L 63.86 0 Q 62.45 0 60.81 0.18 Q 59.18 0.36 58.66 0.47 L 58.66 0.47 Z M 86.74 0.36 L 86.58 0.1 L 86.74 -1.77 Q 88.92 -1.92 89.67 -2.24 Q 90.43 -2.55 90.43 -3.28 L 90.43 -3.28 Q 90.43 -4.11 90.06 -5.04 L 90.06 -5.04 L 88.82 -9.05 Q 87.78 -9.1 84.5 -9.1 L 84.5 -9.1 Q 82.99 -9.1 80.03 -8.79 L 80.03 -8.79 L 78.57 -4.94 Q 78.21 -3.74 78.21 -3.48 L 78.21 -3.48 Q 78.21 -2.65 78.78 -2.29 Q 79.35 -1.92 80.65 -1.92 L 80.65 -1.92 L 82.89 -1.92 L 83.04 -1.72 L 82.73 0.26 Q 82.21 0.21 80.37 0.1 Q 78.52 0 76.75 0 L 76.75 0 Q 75.09 0 73.76 0.05 Q 72.44 0.1 71.97 0.1 L 71.97 0.1 L 72.28 -2.03 Q 73.42 -2.18 74.1 -2.83 Q 74.78 -3.48 75.45 -5.04 L 75.45 -5.04 L 83.62 -25.69 L 87.31 -26.36 L 87.67 -26.31 Q 87.67 -26.1 90.04 -18.1 Q 92.4 -10.09 94.28 -4.84 L 94.28 -4.84 Q 94.8 -3.33 95.6 -2.73 Q 96.41 -2.13 98.18 -1.98 L 98.18 -1.98 L 98.28 -1.77 L 98.02 0.1 Q 97.5 0.1 96.1 0.05 Q 94.69 0 93.29 0 L 93.29 0 Q 91.16 0 89.23 0.16 Q 87.31 0.31 86.74 0.36 L 86.74 0.36 Z M 80.86 -11.23 L 84.4 -11.23 Q 86.22 -11.23 88.19 -11.44 L 88.19 -11.44 L 85.02 -21.53 L 84.66 -21.53 L 80.86 -11.23 Z M 101.66 0.42 L 101.97 -1.77 Q 103.64 -2.03 104.23 -2.73 Q 104.83 -3.43 104.83 -5.2 L 104.83 -5.2 L 104.88 -21.68 Q 104.88 -22.98 104.57 -23.43 Q 104.26 -23.87 103.32 -23.87 L 103.32 -23.87 L 101.92 -23.82 L 101.76 -24.02 L 102.08 -26 Q 102.34 -26 103.64 -25.95 Q 104.94 -25.9 107.12 -25.9 L 107.12 -25.9 Q 108.26 -25.9 109.95 -26.05 Q 111.64 -26.21 112.16 -26.26 L 112.16 -26.26 L 111.96 -24.08 Q 110.55 -23.92 109.98 -23.58 Q 109.41 -23.24 109.3 -22.72 Q 109.2 -22.2 109.04 -20.59 L 109.04 -20.59 Q 108.52 -13.62 108.52 -5.15 L 108.52 -5.15 Q 108.52 -3.85 108.76 -3.25 Q 108.99 -2.65 109.69 -2.44 Q 110.4 -2.24 111.9 -2.24 L 111.9 -2.24 Q 114.4 -2.24 115.57 -2.65 Q 116.74 -3.07 117.34 -4.29 Q 117.94 -5.51 118.4 -8.16 L 118.4 -8.16 L 120.69 -8.42 L 120.85 -8.11 Q 120.74 -7.44 120.35 -5.02 Q 119.96 -2.6 119.65 0.05 L 119.65 0.05 L 119.39 0.36 Q 118.2 0.31 114.32 0.16 Q 110.45 0 107.8 0 L 107.8 0 Q 105.72 0 103.92 0.18 Q 102.13 0.36 101.66 0.42 L 101.66 0.42 Z M 131.4 0.47 Q 129.58 0.47 128.05 0.16 Q 126.52 -0.16 125.61 -0.49 Q 124.7 -0.83 124.49 -0.94 L 124.49 -0.94 L 124.23 -1.4 Q 124.28 -1.66 124.41 -2.57 Q 124.54 -3.48 124.67 -5.12 Q 124.8 -6.76 124.8 -8.42 L 124.8 -8.42 L 127.14 -8.63 Q 127.14 -5.82 127.58 -4.45 Q 128.02 -3.07 129.12 -2.55 Q 130.21 -2.03 132.44 -2.03 L 132.44 -2.03 Q 134.94 -2.03 136.47 -3.12 Q 138.01 -4.21 138.01 -6.03 L 138.01 -6.03 Q 138.01 -7.23 137.15 -8.14 Q 136.29 -9.05 135.17 -9.67 Q 134.06 -10.3 131.61 -11.49 L 131.61 -11.49 Q 128.28 -13.1 126.49 -14.66 Q 124.7 -16.22 124.7 -18.67 L 124.7 -18.67 Q 124.7 -20.85 126.02 -22.62 Q 127.35 -24.39 129.69 -25.38 Q 132.03 -26.36 134.89 -26.36 L 134.89 -26.36 Q 136.6 -26.36 138.11 -26.16 Q 139.62 -25.95 140.5 -25.71 Q 141.39 -25.48 141.6 -25.38 L 141.6 -25.38 L 141.8 -25.01 Q 141.7 -24.44 141.34 -22.44 Q 140.97 -20.44 140.82 -18.15 L 140.82 -18.15 L 138.79 -17.94 L 138.48 -18.15 Q 138.48 -18.3 138.53 -18.8 Q 138.58 -19.29 138.58 -20.02 L 138.58 -20.02 Q 138.58 -22.05 137.51 -22.85 Q 136.45 -23.66 133.74 -23.66 L 133.74 -23.66 Q 131.56 -23.66 130.13 -22.65 Q 128.7 -21.63 128.7 -20.07 L 128.7 -20.07 Q 128.7 -18.51 130.13 -17.42 Q 131.56 -16.33 134.47 -14.92 L 134.47 -14.92 Q 137.02 -13.73 138.55 -12.84 Q 140.09 -11.96 141.18 -10.61 Q 142.27 -9.26 142.27 -7.49 L 142.27 -7.49 Q 142.27 -5.15 140.89 -3.35 Q 139.52 -1.56 137.05 -0.55 Q 134.58 0.47 131.4 0.47 L 131.4 0.47 Z M 151.06 0.21 L 151.42 -1.87 Q 153.5 -2.03 154.36 -2.39 Q 155.22 -2.76 155.45 -3.61 Q 155.69 -4.47 155.69 -6.6 L 155.69 -6.6 L 155.69 -23.82 Q 152.41 -23.71 151.27 -23.45 Q 150.12 -23.19 149.58 -22.23 Q 149.03 -21.27 148.67 -18.62 L 148.67 -18.62 L 146.22 -18.46 Q 146.33 -19.14 146.56 -21.45 Q 146.8 -23.76 146.85 -26 L 146.85 -26 L 147.26 -26.36 L 150.96 -25.95 L 164.22 -25.95 L 168.01 -26.36 L 168.43 -26 Q 168.48 -23.71 168.69 -21.48 Q 168.9 -19.24 169 -18.62 L 169 -18.62 L 166.61 -18.46 Q 166.19 -21.16 165.65 -22.18 Q 165.1 -23.19 164.03 -23.45 Q 162.97 -23.71 159.95 -23.82 L 159.95 -23.82 Q 159.69 -21.32 159.48 -15.52 Q 159.28 -9.72 159.28 -4.84 L 159.28 -4.84 Q 159.28 -3.33 159.85 -2.7 Q 160.42 -2.08 161.72 -2.08 L 161.72 -2.08 Q 162.66 -2.08 163.25 -2.13 Q 163.85 -2.18 164.01 -2.18 L 164.01 -2.18 L 164.16 -2.03 L 163.8 0.16 Q 163.07 0.16 161.1 0.08 Q 159.12 0 157.25 0 L 157.25 0 Q 155.38 0 153.56 0.08 Q 151.74 0.16 151.06 0.21 L 151.06 0.21 Z M 192.4 0.62 Q 191.26 0.62 190.06 -0.39 Q 188.86 -1.4 187.88 -3.17 L 187.88 -3.17 L 183.51 -10.82 L 180.13 -10.82 L 180.02 -5.25 Q 180.02 -3.74 180.23 -3.09 Q 180.44 -2.44 181.04 -2.24 Q 181.64 -2.03 183.09 -1.98 L 183.09 -1.98 L 183.2 -1.82 L 182.78 0.16 Q 182.16 0.1 180.52 0.08 Q 178.88 0.05 177.22 0.05 L 177.22 0.05 Q 175.6 0.05 174.41 0.1 Q 173.21 0.16 172.8 0.21 L 172.8 0.21 L 173.16 -1.92 Q 175.08 -2.18 175.71 -2.81 Q 176.33 -3.43 176.33 -5.15 L 176.33 -5.15 L 176.38 -21.74 Q 176.38 -22.98 176.07 -23.43 Q 175.76 -23.87 174.88 -23.87 L 174.88 -23.87 L 173.42 -23.82 L 173.26 -24.02 L 173.58 -26 Q 174.1 -26 175.55 -25.95 Q 177.01 -25.9 178.46 -25.9 L 178.46 -25.9 Q 179.97 -25.9 181.69 -25.97 Q 183.4 -26.05 184.03 -26.05 L 184.03 -26.05 Q 188.24 -26.05 190.63 -24.31 Q 193.02 -22.57 193.02 -19.5 L 193.02 -19.5 Q 193.02 -17.11 191.41 -15.08 Q 189.8 -13.05 186.89 -11.75 L 186.89 -11.75 L 191.31 -5.1 Q 192.56 -3.22 193.7 -2.44 Q 194.84 -1.66 196.46 -1.66 L 196.46 -1.66 L 196.66 -1.4 L 196.4 0.21 L 192.4 0.62 Z M 184.44 -13.1 Q 185.43 -13.52 186.19 -13.91 Q 186.94 -14.3 187.88 -15.55 Q 188.81 -16.8 188.81 -18.77 L 188.81 -18.77 Q 188.81 -23.82 181.38 -23.82 L 181.38 -23.82 Q 180.96 -23.82 180.8 -23.63 Q 180.65 -23.45 180.65 -22.88 L 180.65 -22.88 Q 180.23 -16.54 180.23 -13.52 L 180.23 -13.52 L 184.44 -13.1 Z M 200.3 0.42 L 200.56 -1.77 Q 202.49 -1.98 203.16 -2.7 Q 203.84 -3.43 203.84 -5.2 L 203.84 -5.2 L 203.89 -21.68 Q 203.89 -22.98 203.58 -23.43 Q 203.27 -23.87 202.33 -23.87 L 202.33 -23.87 L 200.93 -23.82 L 200.82 -24.02 L 201.14 -26 Q 201.76 -26 203.58 -25.95 Q 205.4 -25.9 207.53 -25.9 L 207.53 -25.9 Q 216.22 -25.9 220.38 -26.36 L 220.38 -26.36 L 220.53 -26.1 Q 220.43 -25.53 220.06 -23.5 Q 219.7 -21.48 219.54 -19.14 L 219.54 -19.14 L 217.05 -18.93 Q 217.05 -19.14 217.1 -19.63 Q 217.15 -20.12 217.15 -20.64 L 217.15 -20.64 Q 217.15 -22 216.76 -22.54 Q 216.37 -23.09 215.15 -23.27 Q 213.93 -23.45 210.91 -23.45 L 210.91 -23.45 Q 209.51 -23.45 208.99 -23.37 Q 208.47 -23.3 208.31 -23.01 Q 208.16 -22.72 208.1 -21.94 L 208.1 -21.94 L 207.79 -14.56 L 212.06 -14.51 Q 212.99 -14.51 214.81 -14.69 Q 216.63 -14.87 217.2 -14.92 L 217.2 -14.92 L 217.41 -14.66 L 216.79 -11.96 Q 216.22 -11.96 214.53 -12.01 Q 212.84 -12.06 210.96 -12.06 L 210.96 -12.06 Q 209.51 -12.06 207.69 -11.8 L 207.69 -11.8 Q 207.53 -7.85 207.53 -4.68 L 207.53 -4.68 Q 207.53 -3.48 207.71 -3.02 Q 207.9 -2.55 208.55 -2.39 Q 209.2 -2.24 210.7 -2.24 L 210.7 -2.24 Q 214.08 -2.24 215.54 -2.55 Q 217 -2.86 217.59 -3.82 Q 218.19 -4.78 218.56 -7.12 L 218.56 -7.12 L 220.84 -7.33 L 221.05 -7.07 Q 220.9 -6.5 220.51 -4.39 Q 220.12 -2.29 219.91 0 L 219.91 0 L 219.6 0.26 Q 218.19 0.21 213.77 0.1 Q 209.35 0 206.6 0 L 206.6 0 Q 204.46 0 202.64 0.18 Q 200.82 0.36 200.3 0.42 L 200.3 0.42 Z M 238.68 0.36 L 238.52 0.1 L 238.68 -1.77 Q 240.86 -1.92 241.62 -2.24 Q 242.37 -2.55 242.37 -3.28 L 242.37 -3.28 Q 242.37 -4.11 242.01 -5.04 L 242.01 -5.04 L 240.76 -9.05 Q 239.72 -9.1 236.44 -9.1 L 236.44 -9.1 Q 234.94 -9.1 231.97 -8.79 L 231.97 -8.79 L 230.52 -4.94 Q 230.15 -3.74 230.15 -3.48 L 230.15 -3.48 Q 230.15 -2.65 230.72 -2.29 Q 231.3 -1.92 232.6 -1.92 L 232.6 -1.92 L 234.83 -1.92 L 234.99 -1.72 L 234.68 0.26 Q 234.16 0.21 232.31 0.1 Q 230.46 0 228.7 0 L 228.7 0 Q 227.03 0 225.71 0.05 Q 224.38 0.1 223.91 0.1 L 223.91 0.1 L 224.22 -2.03 Q 225.37 -2.18 226.04 -2.83 Q 226.72 -3.48 227.4 -5.04 L 227.4 -5.04 L 235.56 -25.69 L 239.25 -26.36 L 239.62 -26.31 Q 239.62 -26.1 241.98 -18.1 Q 244.35 -10.09 246.22 -4.84 L 246.22 -4.84 Q 246.74 -3.33 247.55 -2.73 Q 248.35 -2.13 250.12 -1.98 L 250.12 -1.98 L 250.22 -1.77 L 249.96 0.1 Q 249.44 0.1 248.04 0.05 Q 246.64 0 245.23 0 L 245.23 0 Q 243.1 0 241.18 0.16 Q 239.25 0.31 238.68 0.36 L 238.68 0.36 Z M 232.8 -11.23 L 236.34 -11.23 Q 238.16 -11.23 240.14 -11.44 L 240.14 -11.44 L 236.96 -21.53 L 236.6 -21.53 L 232.8 -11.23 Z M 267.64 0.73 Q 262.39 -13.52 259.79 -20.12 L 259.79 -20.12 L 259.53 -20.12 Q 259.32 -17.63 258.78 -10.82 Q 258.23 -4 258.23 -3.33 L 258.23 -3.33 Q 258.23 -2.65 258.54 -2.37 Q 258.86 -2.08 259.58 -2.08 L 259.58 -2.08 L 261.25 -2.08 L 261.35 -1.92 L 260.99 0.16 Q 260.52 0.16 259.19 0.08 Q 257.87 0 256.57 0 L 256.57 0 Q 255.53 0 254.33 0.13 Q 253.14 0.26 252.77 0.31 L 252.77 0.31 L 252.98 -1.82 Q 254.33 -1.98 254.9 -2.63 Q 255.48 -3.28 255.68 -4.89 L 255.68 -4.89 Q 256.1 -8.42 256.8 -14.82 Q 257.5 -21.22 257.5 -22 L 257.5 -22 Q 257.5 -23.04 256.7 -23.53 Q 255.89 -24.02 253.92 -24.13 L 253.92 -24.13 L 253.76 -24.39 L 254.12 -26.1 Q 254.7 -26.05 256.15 -25.97 Q 257.61 -25.9 258.96 -25.9 L 258.96 -25.9 Q 260.1 -25.9 261.07 -25.95 Q 262.03 -26 262.34 -26.05 L 262.34 -26.05 Q 263.9 -21.22 265.38 -16.98 Q 266.86 -12.74 267.83 -10.22 Q 268.79 -7.7 269.05 -7.07 L 269.05 -7.07 L 269.31 -7.07 Q 269.88 -8.53 271.88 -13.88 Q 273.88 -19.24 276.22 -25.95 L 276.22 -25.95 Q 276.54 -26 277.03 -25.97 Q 277.52 -25.95 277.99 -25.95 L 277.99 -25.95 Q 278.56 -25.9 279.66 -25.9 L 279.66 -25.9 Q 280.49 -25.9 282.07 -26 Q 283.66 -26.1 284.18 -26.16 L 284.18 -26.16 L 284.28 -26 L 284.02 -24.18 Q 282.2 -23.97 281.48 -23.48 Q 280.75 -22.98 280.75 -21.94 L 280.75 -21.94 Q 280.75 -20.9 281.11 -15.34 Q 281.48 -9.78 281.84 -5.88 L 281.84 -5.88 Q 282.1 -3.54 282.52 -2.81 Q 282.93 -2.08 283.92 -2.08 L 283.92 -2.08 L 285.12 -2.13 L 285.22 -1.98 L 284.86 0.1 Q 284.44 0.1 283.24 0.05 Q 282.05 0 280.7 0 L 280.7 0 Q 279.34 0 277.63 0.16 Q 275.91 0.31 275.81 0.31 L 275.81 0.31 L 276.02 -1.82 Q 277.37 -1.98 277.94 -2.44 Q 278.51 -2.91 278.51 -3.85 L 278.51 -3.85 Q 278.51 -4.78 277.97 -11.28 Q 277.42 -17.78 277.21 -20.12 L 277.21 -20.12 L 276.95 -20.12 Q 273.88 -12.27 269.15 0.42 L 269.15 0.42 L 267.64 0.73 Z M 290.42 0.42 L 290.68 -1.77 Q 292.6 -1.98 293.28 -2.7 Q 293.96 -3.43 293.96 -5.2 L 293.96 -5.2 L 294.01 -21.68 Q 294.01 -22.98 293.7 -23.43 Q 293.38 -23.87 292.45 -23.87 L 292.45 -23.87 L 291.04 -23.82 L 290.94 -24.02 L 291.25 -26 Q 291.88 -26 293.7 -25.95 Q 295.52 -25.9 297.65 -25.9 L 297.65 -25.9 Q 306.33 -25.9 310.49 -26.36 L 310.49 -26.36 L 310.65 -26.1 Q 310.54 -25.53 310.18 -23.5 Q 309.82 -21.48 309.66 -19.14 L 309.66 -19.14 L 307.16 -18.93 Q 307.16 -19.14 307.22 -19.63 Q 307.27 -20.12 307.27 -20.64 L 307.27 -20.64 Q 307.27 -22 306.88 -22.54 Q 306.49 -23.09 305.27 -23.27 Q 304.04 -23.45 301.03 -23.45 L 301.03 -23.45 Q 299.62 -23.45 299.1 -23.37 Q 298.58 -23.3 298.43 -23.01 Q 298.27 -22.72 298.22 -21.94 L 298.22 -21.94 L 297.91 -14.56 L 302.17 -14.51 Q 303.11 -14.51 304.93 -14.69 Q 306.75 -14.87 307.32 -14.92 L 307.32 -14.92 L 307.53 -14.66 L 306.9 -11.96 Q 306.33 -11.96 304.64 -12.01 Q 302.95 -12.06 301.08 -12.06 L 301.08 -12.06 Q 299.62 -12.06 297.8 -11.8 L 297.8 -11.8 Q 297.65 -7.85 297.65 -4.68 L 297.65 -4.68 Q 297.65 -3.48 297.83 -3.02 Q 298.01 -2.55 298.66 -2.39 Q 299.31 -2.24 300.82 -2.24 L 300.82 -2.24 Q 304.2 -2.24 305.66 -2.55 Q 307.11 -2.86 307.71 -3.82 Q 308.31 -4.78 308.67 -7.12 L 308.67 -7.12 L 310.96 -7.33 L 311.17 -7.07 Q 311.01 -6.5 310.62 -4.39 Q 310.23 -2.29 310.02 0 L 310.02 0 L 309.71 0.26 Q 308.31 0.21 303.89 0.1 Q 299.47 0 296.71 0 L 296.71 0 Q 294.58 0 292.76 0.18 Q 290.94 0.36 290.42 0.42 L 290.42 0.42 Z M 336.44 0.62 Q 335.3 0.62 334.1 -0.39 Q 332.9 -1.4 331.92 -3.17 L 331.92 -3.17 L 327.55 -10.82 L 324.17 -10.82 L 324.06 -5.25 Q 324.06 -3.74 324.27 -3.09 Q 324.48 -2.44 325.08 -2.24 Q 325.68 -2.03 327.13 -1.98 L 327.13 -1.98 L 327.24 -1.82 L 326.82 0.16 Q 326.2 0.1 324.56 0.08 Q 322.92 0.05 321.26 0.05 L 321.26 0.05 Q 319.64 0.05 318.45 0.1 Q 317.25 0.16 316.84 0.21 L 316.84 0.21 L 317.2 -1.92 Q 319.12 -2.18 319.75 -2.81 Q 320.37 -3.43 320.37 -5.15 L 320.37 -5.15 L 320.42 -21.74 Q 320.42 -22.98 320.11 -23.43 Q 319.8 -23.87 318.92 -23.87 L 318.92 -23.87 L 317.46 -23.82 L 317.3 -24.02 L 317.62 -26 Q 318.14 -26 319.59 -25.95 Q 321.05 -25.9 322.5 -25.9 L 322.5 -25.9 Q 324.01 -25.9 325.73 -25.97 Q 327.44 -26.05 328.07 -26.05 L 328.07 -26.05 Q 332.28 -26.05 334.67 -24.31 Q 337.06 -22.57 337.06 -19.5 L 337.06 -19.5 Q 337.06 -17.11 335.45 -15.08 Q 333.84 -13.05 330.93 -11.75 L 330.93 -11.75 L 335.35 -5.1 Q 336.6 -3.22 337.74 -2.44 Q 338.88 -1.66 340.5 -1.66 L 340.5 -1.66 L 340.7 -1.4 L 340.44 0.21 L 336.44 0.62 Z M 328.48 -13.1 Q 329.47 -13.52 330.23 -13.91 Q 330.98 -14.3 331.92 -15.55 Q 332.85 -16.8 332.85 -18.77 L 332.85 -18.77 Q 332.85 -23.82 325.42 -23.82 L 325.42 -23.82 Q 325 -23.82 324.84 -23.63 Q 324.69 -23.45 324.69 -22.88 L 324.69 -22.88 Q 324.27 -16.54 324.27 -13.52 L 324.27 -13.52 L 328.48 -13.1 Z" stroke-linecap="round" />
</g>
<g transform="matrix(1.117241742138885 0 0 1.1172417421388852 276.3949702886982 512.012312418764)" style="" id="logo-logo"  >
	<g transform="matrix(0.2591 0 0 -0.2591 0 48.98658522499994)"  >
<path style="stroke: none; stroke-width: 1; stroke-dasharray: none; stroke-linecap: butt; stroke-dashoffset: 0; stroke-linejoin: miter; stroke-miterlimit: 4; fill: rgb(0,0,0); fill-rule: nonzero; opacity: 1;"  paint-order="stroke"  transform=" translate(-1625, -1269.0049999999999)" d="m 1510.85 1289.57 v -41.13 h 228.3 v 41.13 h -228.3" stroke-linecap="round" />
</g>
	<g transform="matrix(0.2591 0 0 -0.2591 0 72.786185225)"  >
<path style="stroke: none; stroke-width: 1; stroke-dasharray: none; stroke-linecap: butt; stroke-dashoffset: 0; stroke-linejoin: miter; stroke-miterlimit: 4; fill: rgb(0,0,0); fill-rule: nonzero; opacity: 1;"  paint-order="stroke"  transform=" translate(-1625, -1177.15)" d="m 1510.85 1197.72 v -41.14 h 228.3 v 41.14 h -228.3" stroke-linecap="round" />
</g>
	<g transform="matrix(0.2591 0 0 -0.2591 15.609500000000025 96.58578522499994)"  >
<path style="stroke: none; stroke-width: 1; stroke-dasharray: none; stroke-linecap: butt; stroke-dashoffset: 0; stroke-linejoin: miter; stroke-miterlimit: 4; fill: rgb(0,0,0); fill-rule: nonzero; opacity: 1;"  paint-order="stroke"  transform=" translate(-1685.245, -1085.2949999999998)" d="m 1631.34 1105.86 v -41.13 h 107.81 v 41.13 h -107.81" stroke-linecap="round" />
</g>
	<g transform="matrix(0.2591 0 0 -0.2591 -71.86779999999999 0.512885224999934)"  >
<path style="stroke: none; stroke-width: 1; stroke-dasharray: none; stroke-linecap: butt; stroke-dashoffset: 0; stroke-linejoin: miter; stroke-miterlimit: 4; fill: rgb(0,0,0); fill-rule: nonzero; opacity: 1;"  paint-order="stroke"  transform=" translate(-1347.625, -1456.0900000000001)" d="m 1368.19 1570.24 h -41.13 v -228.3 h 41.13 v 228.3" stroke-linecap="round" />
</g>
	<g transform="matrix(0.2591 0 0 -0.2591 -95.66879999999998 16.122385224999903)"  >
<path style="stroke: none; stroke-width: 1; stroke-dasharray: none; stroke-linecap: butt; stroke-dashoffset: 0; stroke-linejoin: miter; stroke-miterlimit: 4; fill: rgb(0,0,0); fill-rule: nonzero; opacity: 1;"  paint-order="stroke"  transform=" translate(-1255.7649999999999, -1395.845)" d="m 1276.33 1449.75 h -41.13 v -107.81 h 41.13 v 107.81" stroke-linecap="round" />
</g>
	<g transform="matrix(0.2591 0 0 -0.2591 0 -47.96081477500002)"  >
<path style="stroke: none; stroke-width: 1; stroke-dasharray: none; stroke-linecap: butt; stroke-dashoffset: 0; stroke-linejoin: miter; stroke-miterlimit: 4; fill: rgb(194,33,43); fill-rule: nonzero; opacity: 1;"  paint-order="stroke"  transform=" translate(-1625, -1643.175)" d="m 1739.15 1622.61 v 41.13 h -228.3 v -41.13 h 228.3" stroke-linecap="round" />
</g>
	<g transform="matrix(0.2591 0 0 -0.2591 0 -71.76041477500007)"  >
<path style="stroke: none; stroke-width: 1; stroke-dasharray: none; stroke-linecap: butt; stroke-dashoffset: 0; stroke-linejoin: miter; stroke-miterlimit: 4; fill: rgb(194,33,43); fill-rule: nonzero; opacity: 1;"  paint-order="stroke"  transform=" translate(-1625, -1735.0300000000002)" d="m 1739.15 1714.46 v 41.14 h -228.3 v -41.14 h 228.3" stroke-linecap="round" />
</g>
	<g transform="matrix(0.2591 0 0 -0.2591 -15.609500000000025 -95.56011477500005)"  >
<path style="stroke: none; stroke-width: 1; stroke-dasharray: none; stroke-linecap: butt; stroke-dashoffset: 0; stroke-linejoin: miter; stroke-miterlimit: 4; fill: rgb(194,33,43); fill-rule: nonzero; opacity: 1;"  paint-order="stroke"  transform=" translate(-1564.755, -1826.885)" d="m 1618.66 1806.32 v 41.13 h -107.81 v -41.13 h 107.81" stroke-linecap="round" />
</g>
	<g transform="matrix(0.2591 0 0 -0.2591 71.80689999999998 0.45978522499990504)"  >
<path style="stroke: none; stroke-width: 1; stroke-dasharray: none; stroke-linecap: butt; stroke-dashoffset: 0; stroke-linejoin: miter; stroke-miterlimit: 4; fill: rgb(194,33,43); fill-rule: nonzero; opacity: 1;"  paint-order="stroke"  transform=" translate(-1902.1399999999999, -1456.295)" d="m 1881.57 1342.15 h 41.14 v 228.29 h -41.14 v -228.29" stroke-linecap="round" />
</g>
	<g transform="matrix(0.2591 0 0 -0.2591 95.60660000000001 -15.149714775000007)"  >
<path style="stroke: none; stroke-width: 1; stroke-dasharray: none; stroke-linecap: butt; stroke-dashoffset: 0; stroke-linejoin: miter; stroke-miterlimit: 4; fill: rgb(194,33,43); fill-rule: nonzero; opacity: 1;"  paint-order="stroke"  transform=" translate(-1993.9950000000001, -1516.54)" d="m 1973.43 1462.64 h 41.13 v 107.8 h -41.13 v -107.8" stroke-linecap="round" />
</g>
	<g transform="matrix(0.2591 0 0 -0.2591 39.70060000000001 -39.700714774999994)"  >
<path style="stroke: none; stroke-width: 1; stroke-dasharray: none; stroke-linecap: butt; stroke-dashoffset: 0; stroke-linejoin: miter; stroke-miterlimit: 4; fill: rgb(194,33,43); fill-rule: nonzero; opacity: 1;"  paint-order="stroke"  transform=" translate(-1778.225, -1611.295)" d="m 1419.33 1705.91 h 41.13 v 223.15 h 206.7 v -122.38 h 122.38 V 1252.4 h 225.21 v 122.38 h 122.37 v 288.96 h -264.29 v -41.13 h 223.16 v -206.7 h -122.38 v -122.37 h -142.94 v 513.14 v 41.14 H 1708.3 v 122.37 h -288.97 v -264.28" stroke-linecap="round" />
</g>
	<g transform="matrix(0.2591 0 0 -0.2591 -39.70060000000001 39.700585225)"  >
<path style="stroke: none; stroke-width: 1; stroke-dasharray: none; stroke-linecap: butt; stroke-dashoffset: 0; stroke-linejoin: miter; stroke-miterlimit: 4; fill: rgb(0,0,0); fill-rule: nonzero; opacity: 1;"  paint-order="stroke"  transform=" translate(-1471.775, -1304.8445)" d="m 1580.1 1105.86 h -119.64 v 557.88 H 1235.25 V 1541.37 H 1112.88 V 1252.4 h 264.29 v 41.14 h -223.16 v 206.69 h 122.38 v 122.38 h 142.94 v -557.88 h 119.63 V 945.949 h 291.71 v 264.291 h -41.13 V 987.09 H 1580.1 v 118.77" stroke-linecap="round" />
</g>
</g>
</svg>